# WaveFront *.obj file (generated by CINEMA 4D)

v -2.00000000000000 0.36782965064049 -0.43768516182899
v -2.00000000000000 0.56782966852188 -0.43768516182899
v 2.00000000000000 0.36782965064049 -0.43768516182899
v 2.00000000000000 0.56782966852188 -0.43768516182899
v 2.00000000000000 0.36782965064049 -0.38768514990807
v 2.00000000000000 0.56782966852188 -0.38768514990807
v -2.00000000000000 0.36782965064049 -0.38768514990807
v -2.00000000000000 0.56782966852188 -0.38768514990807
# 8 vertices

vn 0.00000000000000 0.00000000000000 -1.00000000000000
vn 1.00000000000000 0.00000000000000 0.00000000000000
vn 0.00000000000000 0.00000000000000 1.00000000000000
vn -1.00000000000000 0.00000000000000 0.00000000000000
vn 0.00000000000000 1.00000000000000 0.00000000000000
vn 0.00000000000000 -1.00000000000000 0.00000000000000
# 6 normals

vt 0.00000000000000 0.00000000000000 0.00000000000000
vt 0.00000000000000 1.00000000000000 0.00000000000000
vt 1.00000000000000 1.00000000000000 0.00000000000000
vt 1.00000000000000 0.00000000000000 0.00000000000000
# 4 texture coordinates

o Cube.10
usemtl default
f 1/1/1 2/2/1 4/3/1 3/4/1
f 3/1/2 4/2/2 6/3/2 5/4/2
f 5/1/3 6/2/3 8/3/3 7/4/3
f 7/1/4 8/2/4 2/3/4 1/4/4
f 2/1/5 8/2/5 6/3/5 4/4/5
f 7/1/6 1/2/6 3/3/6 5/4/6

v -2.00000000000000 0.36782965064049 -0.33496087789536
v -2.00000000000000 0.56782966852188 -0.33496087789536
v 2.00000000000000 0.36782965064049 -0.33496087789536
v 2.00000000000000 0.56782966852188 -0.33496087789536
v 2.00000000000000 0.36782965064049 -0.28496086597443
v 2.00000000000000 0.56782966852188 -0.28496086597443
v -2.00000000000000 0.36782965064049 -0.28496086597443
v -2.00000000000000 0.56782966852188 -0.28496086597443
# 8 vertices

# 0 normal

# 0 texture coordinate

o Cube.9
usemtl default
f 9/1/1 10/2/1 12/3/1 11/4/1
f 11/1/2 12/2/2 14/3/2 13/4/2
f 13/1/3 14/2/3 16/3/3 15/4/3
f 15/1/4 16/2/4 10/3/4 9/4/4
f 10/1/5 16/2/5 14/3/5 12/4/5
f 15/1/6 9/2/6 11/3/6 13/4/6

v -2.00000000000000 0.36782965064049 -0.23914670944214
v -2.00000000000000 0.56782966852188 -0.23914670944214
v 2.00000000000000 0.36782965064049 -0.23914670944214
v 2.00000000000000 0.56782966852188 -0.23914670944214
v 2.00000000000000 0.36782965064049 -0.18914671242237
v 2.00000000000000 0.56782966852188 -0.18914671242237
v -2.00000000000000 0.36782965064049 -0.18914671242237
v -2.00000000000000 0.56782966852188 -0.18914671242237
# 8 vertices

# 0 normal

# 0 texture coordinate

o Cube.8
usemtl default
f 17/1/1 18/2/1 20/3/1 19/4/1
f 19/1/2 20/2/2 22/3/2 21/4/2
f 21/1/3 22/2/3 24/3/3 23/4/3
f 23/1/4 24/2/4 18/3/4 17/4/4
f 18/1/5 24/2/5 22/3/5 20/4/5
f 23/1/6 17/2/6 19/3/6 21/4/6

v -2.00000000000000 0.36782965064049 -0.13642242550850
v -2.00000000000000 0.56782966852188 -0.13642242550850
v 2.00000000000000 0.36782965064049 -0.13642242550850
v 2.00000000000000 0.56782966852188 -0.13642242550850
v 2.00000000000000 0.36782965064049 -0.08642242848873
v 2.00000000000000 0.56782966852188 -0.08642242848873
v -2.00000000000000 0.36782965064049 -0.08642242848873
v -2.00000000000000 0.56782966852188 -0.08642242848873
# 8 vertices

# 0 normal

# 0 texture coordinate

o Cube.7
usemtl default
f 25/1/1 26/2/1 28/3/1 27/4/1
f 27/1/2 28/2/2 30/3/2 29/4/2
f 29/1/3 30/2/3 32/3/3 31/4/3
f 31/1/4 32/2/4 26/3/4 25/4/4
f 26/1/5 32/2/5 30/3/5 28/4/5
f 31/1/6 25/2/6 27/3/6 29/4/6

v -2.00000000000000 0.36782965064049 -0.02787738852203
v -2.00000000000000 0.56782966852188 -0.02787738852203
v 2.00000000000000 0.36782965064049 -0.02787738852203
v 2.00000000000000 0.56782966852188 -0.02787738852203
v 2.00000000000000 0.36782965064049 0.02212261222303
v 2.00000000000000 0.56782966852188 0.02212261222303
v -2.00000000000000 0.36782965064049 0.02212261222303
v -2.00000000000000 0.56782966852188 0.02212261222303
# 8 vertices

# 0 normal

# 0 texture coordinate

o Cube.6
usemtl default
f 33/1/1 34/2/1 36/3/1 35/4/1
f 35/1/2 36/2/2 38/3/2 37/4/2
f 37/1/3 38/2/3 40/3/3 39/4/3
f 39/1/4 40/2/4 34/3/4 33/4/4
f 34/1/5 40/2/5 38/3/5 36/4/5
f 39/1/6 33/2/6 35/3/6 37/4/6

v -2.00000000000000 0.36782965064049 0.07484689354897
v -2.00000000000000 0.56782966852188 0.07484689354897
v 2.00000000000000 0.36782965064049 0.07484689354897
v 2.00000000000000 0.56782966852188 0.07484689354897
v 2.00000000000000 0.36782965064049 0.12484689056873
v 2.00000000000000 0.56782966852188 0.12484689056873
v -2.00000000000000 0.36782965064049 0.12484689056873
v -2.00000000000000 0.56782966852188 0.12484689056873
# 8 vertices

# 0 normal

# 0 texture coordinate

o Cube.5
usemtl default
f 41/1/1 42/2/1 44/3/1 43/4/1
f 43/1/2 44/2/2 46/3/2 45/4/2
f 45/1/3 46/2/3 48/3/3 47/4/3
f 47/1/4 48/2/4 42/3/4 41/4/4
f 42/1/5 48/2/5 46/3/5 44/4/5
f 47/1/6 41/2/6 43/3/6 45/4/6

v -2.00000000000000 0.36782965064049 0.16141852736473
v -2.00000000000000 0.56782966852188 0.16141852736473
v 2.00000000000000 0.36782965064049 0.16141852736473
v 2.00000000000000 0.56782966852188 0.16141852736473
v 2.00000000000000 0.36782965064049 0.21141852438450
v 2.00000000000000 0.56782966852188 0.21141852438450
v -2.00000000000000 0.36782965064049 0.21141852438450
v -2.00000000000000 0.56782966852188 0.21141852438450
# 8 vertices

# 0 normal

# 0 texture coordinate

o Cube.4
usemtl default
f 49/1/1 50/2/1 52/3/1 51/4/1
f 51/1/2 52/2/2 54/3/2 53/4/2
f 53/1/3 54/2/3 56/3/3 55/4/3
f 55/1/4 56/2/4 50/3/4 49/4/4
f 50/1/5 56/2/5 54/3/5 52/4/5
f 55/1/6 49/2/6 51/3/6 53/4/6

v -2.00000000000000 0.36782965064049 0.26414281129837
v -2.00000000000000 0.56782966852188 0.26414281129837
v 2.00000000000000 0.36782965064049 0.26414281129837
v 2.00000000000000 0.56782966852188 0.26414281129837
v 2.00000000000000 0.36782965064049 0.31414279341698
v 2.00000000000000 0.56782966852188 0.31414279341698
v -2.00000000000000 0.36782965064049 0.31414279341698
v -2.00000000000000 0.56782966852188 0.31414279341698
# 8 vertices

# 0 normal

# 0 texture coordinate

o Cube.3
usemtl default
f 57/1/1 58/2/1 60/3/1 59/4/1
f 59/1/2 60/2/2 62/3/2 61/4/2
f 61/1/3 62/2/3 64/3/3 63/4/3
f 63/1/4 64/2/4 58/3/4 57/4/4
f 58/1/5 64/2/5 62/3/5 60/4/5
f 63/1/6 57/2/6 59/3/6 61/4/6

v -2.00000000000000 0.36782965064049 0.37268784642220
v -2.00000000000000 0.56782966852188 0.37268784642220
v 2.00000000000000 0.36782965064049 0.37268784642220
v 2.00000000000000 0.56782966852188 0.37268784642220
v 2.00000000000000 0.36782965064049 0.42268782854080
v 2.00000000000000 0.56782966852188 0.42268782854080
v -2.00000000000000 0.36782965064049 0.42268782854080
v -2.00000000000000 0.56782966852188 0.42268782854080
# 8 vertices

# 0 normal

# 0 texture coordinate

o Cube.2
usemtl default
f 65/1/1 66/2/1 68/3/1 67/4/1
f 67/1/2 68/2/2 70/3/2 69/4/2
f 69/1/3 70/2/3 72/3/3 71/4/3
f 71/1/4 72/2/4 66/3/4 65/4/4
f 66/1/5 72/2/5 70/3/5 68/4/5
f 71/1/6 65/2/6 67/3/6 69/4/6

v -2.00000000000000 0.36782965064049 0.47541213035584
v -2.00000000000000 0.56782966852188 0.47541213035584
v 2.00000000000000 0.36782965064049 0.47541213035584
v 2.00000000000000 0.56782966852188 0.47541213035584
v 2.00000000000000 0.36782965064049 0.52541214227676
v 2.00000000000000 0.56782966852188 0.52541214227676
v -2.00000000000000 0.36782965064049 0.52541214227676
v -2.00000000000000 0.56782966852188 0.52541214227676
# 8 vertices

# 0 normal

# 0 texture coordinate

o Cube
usemtl default
f 73/1/1 74/2/1 76/3/1 75/4/1
f 75/1/2 76/2/2 78/3/2 77/4/2
f 77/1/3 78/2/3 80/3/3 79/4/3
f 79/1/4 80/2/4 74/3/4 73/4/4
f 74/1/5 80/2/5 78/3/5 76/4/5
f 79/1/6 73/2/6 75/3/6 77/4/6

